<svg id="Layer_1" xmlns="http://www.w3.org/2000/svg" viewBox="0 0 512 512"><style>.st0{fill:#fff}</style><path class="st0" d="M432 48h-64V32c0-9.6-6.4-16-16-16s-16 6.4-16 16v16H176V32c0-9.6-6.4-16-16-16s-16 6.4-16 16v16H80C35.2 48 0 83.2 0 128v288c0 44.8 35.2 80 80 80h352c44.8 0 80-35.2 80-80V128c0-44.8-35.2-80-80-80zM32 128c0-25.6 22.4-48 48-48h64v16c0 9.6 6.4 16 16 16s16-6.4 16-16V80h160v16c0 9.6 6.4 16 16 16s16-6.4 16-16V80h64c25.6 0 48 22.4 48 48v48H32v-48zm448 288c0 25.6-22.4 48-48 48H80c-25.6 0-48-22.4-48-48V208h448v208z"/><path class="st0" d="M112 416c9.6 0 16-3.2 22.4-9.6 6.4-6.4 9.6-16 9.6-22.4 0-6.4-3.2-16-9.6-22.4-12.8-12.8-32-12.8-44.8 0C83.2 368 80 374.4 80 384c0 6.4 3.2 16 9.6 22.4 6.4 6.4 12.8 9.6 22.4 9.6zm0-96c9.6 0 16-3.2 22.4-9.6 6.4-6.4 9.6-16 9.6-22.4 0-6.4-3.2-16-9.6-22.4-12.8-12.8-32-12.8-44.8 0C83.2 272 80 278.4 80 288s3.2 16 9.6 22.4c6.4 6.4 12.8 9.6 22.4 9.6zm96 96c9.6 0 16-3.2 22.4-9.6 6.4-6.4 9.6-16 9.6-22.4 0-6.4-3.2-16-9.6-22.4-12.8-12.8-32-12.8-44.8 0-6.4 6.4-9.6 16-9.6 22.4 0 6.4 3.2 16 9.6 22.4 6.4 6.4 12.8 9.6 22.4 9.6zm0-96c9.6 0 16-3.2 22.4-9.6 6.4-6.4 9.6-16 9.6-22.4 0-6.4-3.2-16-9.6-22.4-12.8-12.8-32-12.8-44.8 0-6.4 6.4-9.6 16-9.6 22.4 0 6.4 3.2 16 9.6 22.4 6.4 6.4 12.8 9.6 22.4 9.6zm96 96c9.6 0 16-3.2 22.4-9.6 6.4-6.4 9.6-12.8 9.6-22.4s-3.2-16-9.6-22.4c-12.8-12.8-32-12.8-44.8 0-6.4 6.4-9.6 16-9.6 22.4 0 6.4 3.2 16 9.6 22.4 6.4 6.4 12.8 9.6 22.4 9.6zm0-96c9.6 0 16-3.2 22.4-9.6 6.4-6.4 9.6-12.8 9.6-22.4 0-6.4-3.2-16-9.6-22.4-12.8-12.8-32-12.8-44.8 0-6.4 6.4-9.6 16-9.6 22.4 0 6.4 3.2 16 9.6 22.4 6.4 6.4 12.8 9.6 22.4 9.6zm96 96c9.6 0 16-3.2 22.4-9.6 6.4-6.4 9.6-16 9.6-22.4 0-6.4-3.2-16-9.6-22.4-12.8-12.8-32-12.8-44.8 0-6.4 6.4-9.6 12.8-9.6 22.4 0 6.4 3.2 16 9.6 22.4 6.4 6.4 12.8 9.6 22.4 9.6zm0-96c9.6 0 16-3.2 22.4-9.6 6.4-6.4 9.6-12.8 9.6-22.4 0-6.4-3.2-16-9.6-22.4-12.8-12.8-32-12.8-44.8 0-6.4 6.4-9.6 16-9.6 22.4 0 6.4 3.2 16 9.6 22.4 6.4 6.4 12.8 9.6 22.4 9.6z"/></svg>