<svg id="Layer_1" xmlns="http://www.w3.org/2000/svg" viewBox="46.8 21.4 209.3 209.3"><style>.st0{fill:#27282d}</style><path class="st0" d="M151.4 21.4C93.7 21.4 46.8 68.3 46.8 126c0 57.7 46.9 104.6 104.6 104.6 57.7 0 104.6-47 104.6-104.6.1-57.7-46.9-104.6-104.6-104.6zm0 187.1c-45.5 0-82.4-37-82.4-82.4 0-45.4 37-82.4 82.4-82.4 45.4 0 82.4 37 82.4 82.4.1 45.4-36.9 82.4-82.4 82.4z"/><path class="st0" d="M192.6 121.9h-39.7V65.4c0-3.4-2.8-6.2-6.2-6.2-3.4 0-6.2 2.8-6.2 6.2v64.7c0 1.3.4 2.5 1.1 3.5 1.3 2.8 4.1 4.7 7.4 4.7h43.5c4.6 0 8.3-3.7 8.3-8.3 0-4.4-3.7-8.1-8.2-8.1z"/></svg>