<svg id="Capa_1" xmlns="http://www.w3.org/2000/svg" viewBox="0 0 512 512"><style>.st0{fill:#292a2f}</style><path class="st0" d="M256 0C114.8 0 0 114.8 0 256s114.8 256 256 256 256-114.8 256-256S397.2 0 256 0zm0 488.7C127.7 488.7 23.3 384.3 23.3 256S127.7 23.3 256 23.3 488.7 127.7 488.7 256 384.3 488.7 256 488.7z"/><path class="st0" d="M256 45.4C139.9 45.4 45.4 139.9 45.4 256S139.9 466.6 256 466.6 466.6 372.1 466.6 256 372.1 45.4 256 45.4zm0 414.2c-112.3 0-203.6-91.4-203.6-203.6S143.7 52.4 256 52.4 459.6 143.7 459.6 256 368.3 459.6 256 459.6z"/><path class="st0" d="M240.6 311.6h-23.3v25.6H197v23.3h64v-23.3h-20.4zm45.8-177.1h-93.1v27.9h24v78.8h-24v27.9h24v5.2h23.3v-5.2h45.8c37.1 0 67.3-30.2 67.3-67.3s-30.2-67.3-67.3-67.3zm0 106.7h-45.8v-78.8h45.8c21.7 0 39.4 17.7 39.4 39.4s-17.7 39.4-39.4 39.4zM193.3 279h125.6v27.9H193.3z"/></svg>