<?xml version="1.0" encoding="utf-8"?>
<!-- Generator: Adobe Illustrator 19.0.0, SVG Export Plug-In . SVG Version: 6.00 Build 0)  -->
<svg version="1.1" id="Capa_1" xmlns="http://www.w3.org/2000/svg" xmlns:xlink="http://www.w3.org/1999/xlink" x="0px" y="0px"
	 viewBox="0 0 509.1 509.1" style="enable-background:new 0 0 509.1 509.1;" xml:space="preserve">
<style type="text/css">
	.st0{fill:#1D1C21;}
</style>
<g>
	<g>
		<path class="st0" d="M75.4,0H45.1L6.3,36.3L26.6,58c8-7,12.8-12.2,14.3-15.4h0.6V46c0,7.6,0,19.1-0.1,34.5
			c-0.1,15.4-0.1,27-0.1,34.8H10.6v28.3h95.6v-28.3H75.4V0z"/>
		<path class="st0" d="M505.5,72.6c-1.8-1.4-4-2.1-6.4-2.1H151.9c-2.5,0-4.6,0.7-6.4,2.1c-1.8,1.4-2.7,3.1-2.7,5v42.4
			c0,1.9,0.9,3.6,2.7,5c1.8,1.4,3.9,2.1,6.4,2.1h347.2c2.5,0,4.6-0.7,6.4-2.1c1.8-1.4,2.7-3.1,2.7-5V77.6
			C508.2,75.7,507.3,74,505.5,72.6z"/>
		<path class="st0" d="M73.7,420.8l27.1-32.8v-25.1H5.7v43.4H36v-15.1c3,0,7.7-0.1,13.8-0.3c6.2-0.2,10.8-0.3,13.8-0.3v0.3
			c-3.6,3.4-7.1,7.1-10.6,11c-3.4,3.9-7.5,9-12.1,15.4c-4.7,6.4-7.8,10.5-9.3,12.4l7.4,16c20-1.5,30,3.8,30,16c0,5.3-2,9.4-6.1,12.1
			c-4.1,2.8-8.9,4.1-14.4,4.1c-10.8,0-20.9-4.3-30.3-12.9L2,490.2c12.6,12.6,28.9,18.8,49.1,18.8c15.4,0,28.3-4.4,38.7-13.1
			c10.4-8.8,15.6-20.7,15.6-36c0-9.7-2.9-18.1-8.6-25.1C91.1,427.8,83.4,423.1,73.7,420.8z"/>
		<path class="st0" d="M75.9,298.1H39.7c0.2-4.8,3.6-9.8,10.1-15c6.6-5.2,13.7-10,21.6-14.4c7.8-4.4,14.9-10.5,21.4-18.4
			c6.5-7.9,9.7-16.6,9.7-26.1c0-13.5-4.8-24.2-14.3-32.1c-9.5-7.9-21.2-11.8-35.1-11.8c-11,0-21.1,2.7-30.1,8.1
			c-9,5.4-15.8,13-20.4,22.7l24.3,16.8c6.7-11,14.4-16.6,23.1-16.6c4.8,0,8.5,1.3,11.3,3.9c2.8,2.6,4.1,6.2,4.1,11
			c0,4.4-2.2,8.7-6.7,12.8c-4.5,4.2-9.9,8.3-16.1,12.4C36.3,255.5,30,260,23.7,265c-6.3,4.9-11.7,11.4-16.1,19.4
			c-4.5,8-6.7,16.8-6.7,26.6c0,3.4,0.6,8.6,1.7,15.4h103.4v-45.4v0h-30V298.1z"/>
		<path class="st0" d="M499.1,406H151.9c-2.7,0-4.9,0.7-6.6,2c-1.7,1.3-2.6,3-2.6,5v42c0,1.9,0.9,3.5,2.7,4.9
			c1.8,1.4,3.9,2.1,6.4,2.1h347.2c2.5,0,4.6-0.7,6.4-2.1c1.8-1.4,2.7-3,2.7-4.9v-42c0-1.9-0.9-3.5-2.7-4.9
			C503.7,406.7,501.5,406,499.1,406z"/>
		<path class="st0" d="M499.1,226H151.9c-2.7,0-4.9,0.7-6.6,2c-1.7,1.3-2.6,3-2.6,5v42c0,1.9,0.9,3.5,2.7,4.9
			c1.8,1.4,3.9,2.1,6.4,2.1h347.2c2.5,0,4.6-0.7,6.4-2.1c1.8-1.4,2.7-3,2.7-4.9v-42c0-1.9-0.9-3.5-2.7-4.9
			C503.7,226.7,501.5,226,499.1,226z"/>
	</g>
</g>
</svg>
