<svg id="Capa_1" xmlns="http://www.w3.org/2000/svg" viewBox="0 0 512 512"><style>.st0{fill:#fff}</style><path class="st0" d="M473.7 397.2l-83.4-36.1c-2-1-4.1-3.4-6-6.6H440c1 .1 23.9 2.2 42.3-5.7 7-3 12.2-8.9 14.2-16.3 2.1-7.4.8-15.2-3.6-21.5-15.9-22.6-53.1-81.8-54.2-141.8 0-1-3.4-103.1-104.2-103.9-14.8.1-28.6 2.6-41 7.3-2.7-6.9-6.7-14.2-12.7-21-17.5-20-46-30.1-84.5-30.1s-67 10.1-84.5 30.1c-20.2 23-18.3 51-17.9 55.7v45.4c-5.5 6.2-8.5 14.2-8.5 22.4v34.1c0 10.4 4.7 20.1 12.8 26.5 7.8 31 24.2 54.3 29.9 61.8v28.2c0 8.3-4.5 15.8-11.8 19.8L40.2 387C15.4 400.4 0 426.3 0 454.5v36.2h512v-31.5c0-26.5-14.7-50.2-38.3-62zm-98.2 76.4H17.1v-19.1c0-21.9 12-42.1 31.2-52.6l76.1-41.5c12.7-7 20.7-20.3 20.7-34.8v-34.3l-2-2.4c-.2-.2-21.1-25.5-29.1-60.3l-.8-3.4-2.9-1.9c-4.9-3.2-7.9-8.5-7.9-14.3v-34.1c0-4.8 2-9.3 5.7-12.6l2.8-2.5v-53.1l-.1-1.1c0-.2-2.9-23.9 13.7-42.8 14.1-16.1 38.3-24.3 71.7-24.3 33.3 0 57.4 8.1 71.6 24.1 7 8 10.6 16.8 12.3 24.5.1.6.3 1.2.4 1.8l.3 1.8c.1.7.2 1.3.3 1.9.1.5.1.9.2 1.3.1 1.1.2 2.1.3 3v.2c.1.9.1 1.8.1 2.6v2.7c0 2-.2 3.2-.2 3.2l-.1 54.2 2.8 2.5c3.7 3.3 5.7 7.8 5.7 12.6V209c0 7.4-4.9 14-12.1 16.2l-4.2 1.3-1.4 4.2c-5.7 17.8-13.8 34.2-24.2 48.8-2.5 3.6-5 6.8-7.1 9.2l-2.1 2.4v35.2c0 2.2.2 4.3.5 6.4.1.4.2.9.3 1.3.3 1.7.8 3.4 1.3 5 .1.4.3.8.4 1.1.7 1.8 1.4 3.5 2.3 5.2l.3.6c1.2 2.2 2.7 4.3 4.3 6.2l1.9 2.4h.3c2.9 2.9 6.3 5.4 10.1 7.3l81.5 40.8c20.4 10.2 33.1 30.7 33.1 53.6v17.4zm119.4 0H392.5v-17.4c0-29.3-16.3-55.7-42.5-68.8l-58.5-29.3c1.4-3.3 1.6-7.1.4-10.7-2.1-6-7.6-9.9-13.9-9.9h-19c-.4-.7-.6-1.5-1-2.2-.4-1-.9-1.9-1.2-3-.5-1.9-.8-3.9-.8-5.9v-28.9c2-2.4 4-5.1 6.1-8.1 10.6-14.9 19-31.6 25.2-49.5 12-5.5 19.9-17.4 19.9-30.9v-34.1c0-8.2-3.1-16.2-8.5-22.4v-45.4c.2-2.1.7-9.1-.7-18.3 11-4.3 23.3-6.5 36.6-6.7 84 .7 87 83.7 87.1 87.2C423 234 462.2 296.7 479 320.6c1.4 2 1.9 4.6 1.2 7.1-.4 1.4-1.5 3.9-4.6 5.2-14.3 6.2-33.8 4.4-34.8 4.4h-58.7c-5.5 0-10.5 2.8-13.4 7.5-2.9 4.7-3.2 10.3-.7 15.2 2.7 5.4 7.4 12.6 15.1 16.4l83.2 36c17.7 8.9 28.6 26.7 28.6 46.5v14.7z"/></svg>