<svg id="Capa_1" xmlns="http://www.w3.org/2000/svg" viewBox="0 0 512 512"><style>.st0{fill:#fff}</style><path class="st0" d="M256.1 336.8c55.3 0 100.3-45.1 100.3-100.3V100.3C356.4 45.1 311.3 0 256.1 0S155.7 45.1 155.7 100.3v136.1c0 55.4 45.1 100.4 100.4 100.4zm-74.8-236.5c0-41.2 33.6-74.8 74.8-74.8s74.8 33.6 74.8 74.8v136.1c0 41.2-33.6 74.8-74.8 74.8s-74.8-33.6-74.8-74.8V100.3z"/><path class="st0" d="M98.5 223.7c-7.1 0-12.8 5.7-12.8 12.8 0 89.6 69.6 163.3 157.6 169.8v80h-66.6c-7.1 0-12.8 5.7-12.8 12.8 0 7.1 5.7 12.8 12.8 12.8h158.8c7.1 0 12.8-5.7 12.8-12.8 0-7.1-5.7-12.8-12.8-12.8h-66.6v-80c88-6.6 157.6-80.2 157.6-169.8 0-7.1-5.7-12.8-12.8-12.8-7.1 0-12.8 5.7-12.8 12.8 0 79.9-65 144.9-144.9 144.9s-145-65-145-144.9c.2-7-5.5-12.8-12.5-12.8z"/></svg>