<svg id="Isolation_Mode" xmlns="http://www.w3.org/2000/svg" viewBox="0 0 512 512"><style>.st0,.st1{fill:#fff}</style><path class="st0" d="M256 0C147.2 0 58.7 88.5 58.7 197.3c0 77.7 32.5 156.4 94.1 227.4 46 53.1 91.6 83.1 93.5 84.4 2.9 1.9 6.3 2.9 9.7 2.9 3.4 0 6.7-1 9.7-2.9 1.9-1.3 47.5-31.3 93.5-84.4 61.6-71 94.1-149.7 94.1-227.4C453.3 88.5 364.8 0 256 0zm0 472.6c-36.3-27-161.9-131.1-161.9-275.3C94.1 108 166.7 35.4 256 35.4c89.3 0 161.9 72.6 161.9 161.9 0 144.2-125.6 248.3-161.9 275.3z"/><path class="st1" d="M256 119c-43.2 0-78.3 35.1-78.3 78.3 0 43.2 35.1 78.3 78.3 78.3s78.3-35.1 78.3-78.3c0-43.2-35.1-78.3-78.3-78.3zm0 121.2c-23.7 0-42.9-19.3-42.9-42.9 0-23.7 19.3-42.9 42.9-42.9 23.7 0 42.9 19.3 42.9 42.9 0 23.7-19.2 42.9-42.9 42.9z"/></svg>