<svg id="Capa_1" xmlns="http://www.w3.org/2000/svg" viewBox="0 0 512 512"><style>.st0,.st1{fill:#fff}</style><path class="st0" d="M431.5 490.5h-351c-4.3 0-7.8-3.5-7.8-7.8V194.3c0-4.3 3.5-7.8 7.8-7.8s7.8 3.5 7.8 7.8V475h335.5V194.3c0-4.3 3.5-7.8 7.8-7.8s7.8 3.5 7.8 7.8v288.5c-.1 4.3-3.6 7.7-7.9 7.7z"/><path class="st0" d="M436.7 194c-1.4 0-2.8-.5-3.8-1.5L258.2 32.3 83.5 192.5c-2.2 2.1-5.8 2-7.9-.2-2.1-2.2-2-5.6.2-7.7L254.3 20.9c2.2-2 5.5-2 7.7 0l178.5 163.7c2.2 2.1 2.3 5.5.2 7.7-1.1 1.1-2.5 1.7-4 1.7z"/><path class="st1" d="M317.9 490.5H194.1c-4.3 0-7.8-3.5-7.8-7.8v-168c0-4.3 3.5-7.8 7.8-7.8h123.8c4.3 0 7.8 3.5 7.8 7.8v168.1c0 4.3-3.5 7.7-7.8 7.7zm-116-15.5h108.3V322.4H201.9V475z"/></svg>