<svg id="Capa_1" xmlns="http://www.w3.org/2000/svg" viewBox="0 0 512 512"><style>.st0{fill:#fff}</style><path class="st0" d="M376 239.9c0-3-1.1-5.3-3.3-6.7-2.1-1.4-6.7-2.9-13.6-4.5-12.8-2.8-21.3-5.9-25.7-9.3-4.3-3.3-6.5-8.4-6.5-15.4 0-7.8 2.9-14.1 8.5-18.7 5.7-4.6 13.4-6.9 23-6.9 9 0 16.4 2.4 22 7.1 5.8 4.8 8.9 11.2 9.5 19.3h-16.5c-.3-3.8-1.9-6.9-5-9.1-3.1-2.3-7.1-3.4-12-3.4-4.3 0-7.7.9-10.1 2.8-2.4 1.9-3.6 4.5-3.6 7.9 0 2.4 1.2 4.3 3.8 5.6 2.5 1.3 7.8 2.9 15.8 4.7 11.8 2.6 19.6 5.7 23.6 9.1 4 3.4 5.9 8.9 5.9 16.4 0 7.6-3 13.6-8.9 18-6 4.5-14.1 6.7-24.3 6.7-10.2 0-18.2-2.4-24-7.1-5.8-4.7-8.8-11.4-9.2-20.1h16.3c.2 4.3 1.8 7.6 4.7 9.9 2.9 2.3 7 3.5 12.3 3.5 5.4 0 9.6-.9 12.6-2.6 3.2-1.8 4.7-4.2 4.7-7.2zm-128.6 21.5h8.1l12.6-63.6 13 63.6h16.2l22.5-80.8h-17.1l-13.5 58.6-11.6-58.6h-17.9L248 239.7l-13.5-59.1h-17.6l22.5 80.8h8zm-37.5-7.2v-7.1h-44.4V226H205v-13.9h-39.5V195h42.6v-14.3h-59.5v80.8h61.3v-7.3zM66.5 180.6v80.8h15.8v-58.2l33.3 58.2h16.8v-80.8h-15.8v56.7l-32.4-56.7H66.5zM503.7 0v329.3h-53.9v52.5H335.3l-77.7 77.7v-1.4L203.7 512V381.8H8.3V52.5h53.9V0h441.5zm-75.6 74.2h-398V360h195.3v99.5l32.2-32.2 10.8-10.8 10.9-10.8L325 360h103.1V74.2zm53.8-52.5H84v30.8h365.8v255h32.1V21.7z"/></svg>