<svg id="Capa_1" xmlns="http://www.w3.org/2000/svg" viewBox="0 0 512 512"><style>.st0,.st1{fill:#fff}</style><path class="st0" d="M197.2 299.6l-7.9 46.7c-1.1 6.4 1.5 12.8 6.8 16.6 5.2 3.8 12.2 4.3 17.9 1.3l41.9-21.9 41.9 21.9c2.5 1.3 5.2 1.9 7.9 1.9 3.5 0 7-1.1 10-3.2 5.2-3.8 7.9-10.2 6.8-16.6l-7.8-46.7 33.8-33.1c4.6-4.5 6.3-11.3 4.3-17.4-2-6.1-7.3-10.6-13.7-11.6l-46.8-6.9-21.1-42.4c-2.9-5.8-8.8-9.4-15.2-9.4-6.4 0-12.4 3.7-15.3 9.4l-21.1 42.4-46.8 6.9c-6.4.9-11.7 5.4-13.7 11.6-2 6.1-.4 12.9 4.3 17.4l33.8 33.1z"/><path class="st1" d="M457.2 54.4h-53.6V24.7c0-13.6-11.1-24.7-24.7-24.7H375c-13.6 0-24.7 11.1-24.7 24.7v29.7H161.1V24.7C161.1 11.1 150 0 136.4 0h-3.9c-13.6 0-24.7 11.1-24.7 24.7v29.7h-53C26.8 54.4 4 77.2 4 105.3v355.9c0 28 22.8 50.8 50.8 50.8h402.3c28 0 50.8-22.8 50.8-50.8V105.3c.1-28.1-22.7-50.9-50.7-50.9zM469 463H41V86h428v377z"/></svg>