<svg id="Layer_1" xmlns="http://www.w3.org/2000/svg" viewBox="-137 245.3 319.5 351.6"><style>.st0{fill:#fff}</style><path class="st0" d="M120.1 596.9H151c8.6 0 15.5-7 15.5-15.5v-265h.5c8.6 0 15.5-7 15.5-15.5v-16c0-8.6-7-15.5-15.5-15.5H30.3v-16.6c0-4.1-3.4-7.5-7.5-7.5s-7.5 3.4-7.5 7.5v16.5h-136.8c-8.6 0-15.5 7-15.5 15.5v16c0 8.6 7 15.5 15.5 15.5h.5v265c0 8.6 7 15.5 15.5 15.5h30.9m242.2-295.9c0 .3-.2.5-.5.5h-24c-4.1 0-7.5 3.4-7.5 7.5s3.4 7.5 7.5 7.5h8.5v265c0 .3-.2.5-.5.5h-256.6c-.3 0-.5-.2-.5-.5v-265h217c4.1 0 7.5-3.4 7.5-7.5s-3.4-7.5-7.5-7.5h-232.5c-.3 0-.5-.2-.5-.5v-16c0-.3.2-.5.5-.5h288.6c.3 0 .5.2.5.5v16z"/><path class="st0" d="M119 369H78.9c-4.1 0-7.5 3.4-7.5 7.5s3.4 7.5 7.5 7.5h22l-73.7 73.7c-.2.2-.5.2-.7 0L9.8 441c-6-6-15.9-6-21.9 0l-66.5 66.5c-2.9 2.9-2.9 7.7 0 10.6 1.5 1.5 3.4 2.2 5.3 2.2s3.8-.7 5.3-2.2l66.5-66.5c.2-.2.5-.2.7 0l16.7 16.7c2.9 2.9 6.8 4.5 11 4.5s8-1.6 11-4.5l73.7-73.7v22c0 4.1 3.4 7.5 7.5 7.5s7.5-3.4 7.5-7.5v-40.1c-.1-4.1-3.5-7.5-7.6-7.5z"/></svg>